<mxfile host="65bd71144e">
    <diagram id="C5RBs43oDa-KdzZeNtuy" name="Page-1">
        <mxGraphModel dx="759" dy="563" grid="1" gridSize="10" guides="1" tooltips="1" connect="1" arrows="1" fold="1" page="1" pageScale="1" pageWidth="827" pageHeight="1169" math="0" shadow="0">
            <root>
                <mxCell id="WIyWlLk6GJQsqaUBKTNV-0"/>
                <mxCell id="WIyWlLk6GJQsqaUBKTNV-1" parent="WIyWlLk6GJQsqaUBKTNV-0"/>
                <mxCell id="68" value="" style="edgeStyle=none;" parent="WIyWlLk6GJQsqaUBKTNV-1" source="0" target="67" edge="1">
                    <mxGeometry relative="1" as="geometry"/>
                </mxCell>
                <mxCell id="0" value="" style="ellipse;whiteSpace=wrap;aspect=fixed;" parent="WIyWlLk6GJQsqaUBKTNV-1" vertex="1">
                    <mxGeometry x="1571" y="20" width="45" height="45" as="geometry"/>
                </mxCell>
                <mxCell id="11" value="fin" style="ellipse;whiteSpace=wrap;aspect=fixed;" parent="WIyWlLk6GJQsqaUBKTNV-1" vertex="1">
                    <mxGeometry x="1394" y="2620" width="45" height="45" as="geometry"/>
                </mxCell>
                <mxCell id="70" style="edgeStyle=none;html=0;exitX=0.5;exitY=1;exitDx=0;exitDy=0;" parent="WIyWlLk6GJQsqaUBKTNV-1" source="153" target="69" edge="1">
                    <mxGeometry relative="1" as="geometry">
                        <mxPoint x="1430" y="300" as="sourcePoint"/>
                    </mxGeometry>
                </mxCell>
                <mxCell id="72" value="call(sound, &quot;central_cuadrante1_de_central.mp3&quot;, &quot;&quot;)" style="edgeLabel;align=center;verticalAlign=middle;resizable=0;points=[];" parent="70" vertex="1" connectable="0">
                    <mxGeometry x="0.1565" relative="1" as="geometry">
                        <mxPoint as="offset"/>
                    </mxGeometry>
                </mxCell>
                <mxCell id="154" value="" style="edgeStyle=none;" parent="WIyWlLk6GJQsqaUBKTNV-1" source="67" target="153" edge="1">
                    <mxGeometry relative="1" as="geometry"/>
                </mxCell>
                <mxCell id="155" value="sleep(5000)" style="edgeLabel;html=1;align=center;verticalAlign=middle;resizable=0;points=[];" parent="154" vertex="1" connectable="0">
                    <mxGeometry x="0.2593" y="4" relative="1" as="geometry">
                        <mxPoint x="-5" y="-17" as="offset"/>
                    </mxGeometry>
                </mxCell>
                <mxCell id="67" value="call(sound, &quot;city.mp3&quot;, &quot;loop&quot;) " style="rounded=1;whiteSpace=wrap;" parent="WIyWlLk6GJQsqaUBKTNV-1" vertex="1">
                    <mxGeometry x="1360" y="100" width="470" height="80" as="geometry"/>
                </mxCell>
                <mxCell id="74" style="edgeStyle=none;html=1;" parent="WIyWlLk6GJQsqaUBKTNV-1" source="69" target="73" edge="1">
                    <mxGeometry relative="1" as="geometry"/>
                </mxCell>
                <mxCell id="75" value="silence()" style="edgeLabel;html=1;align=center;verticalAlign=middle;resizable=0;points=[];" parent="74" vertex="1" connectable="0">
                    <mxGeometry x="-0.3033" y="1" relative="1" as="geometry">
                        <mxPoint as="offset"/>
                    </mxGeometry>
                </mxCell>
                <mxCell id="77" value="" style="edgeStyle=none;exitX=1;exitY=0.5;exitDx=0;exitDy=0;entryX=0;entryY=0.5;entryDx=0;entryDy=0;rounded=0;" parent="WIyWlLk6GJQsqaUBKTNV-1" source="69" target="76" edge="1">
                    <mxGeometry relative="1" as="geometry">
                        <Array as="points">
                            <mxPoint x="1850" y="370"/>
                        </Array>
                    </mxGeometry>
                </mxCell>
                <mxCell id="78" value="**voice(cinco cero cinco)" style="edgeLabel;html=1;align=center;verticalAlign=middle;resizable=0;points=[];" parent="77" vertex="1" connectable="0">
                    <mxGeometry x="0.0675" y="-2" relative="1" as="geometry">
                        <mxPoint as="offset"/>
                    </mxGeometry>
                </mxCell>
                <mxCell id="69" value="" style="rounded=1;whiteSpace=wrap;" parent="WIyWlLk6GJQsqaUBKTNV-1" vertex="1">
                    <mxGeometry x="1439" y="410" width="310" height="100" as="geometry"/>
                </mxCell>
                <mxCell id="82" style="edgeStyle=none;rounded=0;html=0;" parent="WIyWlLk6GJQsqaUBKTNV-1" source="73" target="81" edge="1">
                    <mxGeometry relative="1" as="geometry"/>
                </mxCell>
                <mxCell id="84" value="call(sound, &quot;central_dirijase_bar_la_20.mp3&quot;, &quot;&quot;)" style="edgeLabel;align=center;verticalAlign=middle;resizable=0;points=[];" parent="82" vertex="1" connectable="0">
                    <mxGeometry x="-0.2805" y="1" relative="1" as="geometry">
                        <mxPoint as="offset"/>
                    </mxGeometry>
                </mxCell>
                <mxCell id="73" value="" style="rounded=1;whiteSpace=wrap;" parent="WIyWlLk6GJQsqaUBKTNV-1" vertex="1">
                    <mxGeometry x="1439" y="610" width="310" height="100" as="geometry"/>
                </mxCell>
                <mxCell id="79" style="edgeStyle=none;rounded=0;html=0;exitX=0;exitY=0.5;exitDx=0;exitDy=0;entryX=1;entryY=0.5;entryDx=0;entryDy=0;" parent="WIyWlLk6GJQsqaUBKTNV-1" source="76" target="69" edge="1">
                    <mxGeometry relative="1" as="geometry">
                        <Array as="points">
                            <mxPoint x="1850" y="560"/>
                        </Array>
                    </mxGeometry>
                </mxCell>
                <mxCell id="76" value="increase(points.codigos)" style="rounded=1;whiteSpace=wrap;" parent="WIyWlLk6GJQsqaUBKTNV-1" vertex="1">
                    <mxGeometry x="1960" y="410" width="310" height="100" as="geometry"/>
                </mxCell>
                <mxCell id="86" style="edgeStyle=none;rounded=0;html=0;exitX=1;exitY=0.5;exitDx=0;exitDy=0;entryX=0;entryY=0.5;entryDx=0;entryDy=0;" parent="WIyWlLk6GJQsqaUBKTNV-1" source="81" target="85" edge="1">
                    <mxGeometry relative="1" as="geometry">
                        <Array as="points">
                            <mxPoint x="1850" y="790"/>
                        </Array>
                    </mxGeometry>
                </mxCell>
                <mxCell id="88" value="**voice(cincuenta y cuatro)" style="edgeLabel;align=center;verticalAlign=middle;resizable=0;points=[];" parent="86" vertex="1" connectable="0">
                    <mxGeometry x="-0.1105" y="2" relative="1" as="geometry">
                        <mxPoint x="21" y="-7" as="offset"/>
                    </mxGeometry>
                </mxCell>
                <mxCell id="98" style="edgeStyle=none;rounded=0;html=0;" parent="WIyWlLk6GJQsqaUBKTNV-1" source="81" target="95" edge="1">
                    <mxGeometry relative="1" as="geometry"/>
                </mxCell>
                <mxCell id="99" value="silence()" style="edgeLabel;align=center;verticalAlign=middle;resizable=0;points=[];" parent="98" vertex="1" connectable="0">
                    <mxGeometry x="-0.2974" relative="1" as="geometry">
                        <mxPoint as="offset"/>
                    </mxGeometry>
                </mxCell>
                <mxCell id="81" value="" style="rounded=1;whiteSpace=wrap;" parent="WIyWlLk6GJQsqaUBKTNV-1" vertex="1">
                    <mxGeometry x="1439" y="830" width="310" height="100" as="geometry"/>
                </mxCell>
                <mxCell id="93" style="edgeStyle=none;rounded=0;html=0;entryX=1;entryY=0.5;entryDx=0;entryDy=0;exitX=0;exitY=0.5;exitDx=0;exitDy=0;" parent="WIyWlLk6GJQsqaUBKTNV-1" source="85" target="81" edge="1">
                    <mxGeometry relative="1" as="geometry">
                        <Array as="points">
                            <mxPoint x="1860" y="970"/>
                        </Array>
                    </mxGeometry>
                </mxCell>
                <mxCell id="85" value="increase(points.codigos)" style="rounded=1;whiteSpace=wrap;" parent="WIyWlLk6GJQsqaUBKTNV-1" vertex="1">
                    <mxGeometry x="1990" y="830" width="310" height="100" as="geometry"/>
                </mxCell>
                <mxCell id="106" style="edgeStyle=none;rounded=0;html=0;" parent="WIyWlLk6GJQsqaUBKTNV-1" source="89" target="100" edge="1">
                    <mxGeometry relative="1" as="geometry"/>
                </mxCell>
                <mxCell id="152" style="edgeStyle=none;rounded=0;html=0;" parent="WIyWlLk6GJQsqaUBKTNV-1" source="89" target="151" edge="1">
                    <mxGeometry relative="1" as="geometry"/>
                </mxCell>
                <mxCell id="89" value="// Ubicar los policías dentro del bar" style="rounded=1;whiteSpace=wrap;" parent="WIyWlLk6GJQsqaUBKTNV-1" vertex="1">
                    <mxGeometry x="1440" y="1290" width="310" height="100" as="geometry"/>
                </mxCell>
                <mxCell id="96" style="edgeStyle=none;rounded=0;html=0;" parent="WIyWlLk6GJQsqaUBKTNV-1" source="95" target="89" edge="1">
                    <mxGeometry relative="1" as="geometry"/>
                </mxCell>
                <mxCell id="97" value="call(sound,&amp;nbsp;&quot;central_me_reporta_523.mp3&quot;,&amp;nbsp;&quot;&quot;)" style="edgeLabel;html=1;align=center;verticalAlign=middle;resizable=0;points=[];" parent="96" vertex="1" connectable="0">
                    <mxGeometry x="0.1597" y="2" relative="1" as="geometry">
                        <mxPoint as="offset"/>
                    </mxGeometry>
                </mxCell>
                <mxCell id="95" value="" style="whiteSpace=wrap;rounded=1;" parent="WIyWlLk6GJQsqaUBKTNV-1" vertex="1">
                    <mxGeometry x="1440" y="1060" width="310" height="100" as="geometry"/>
                </mxCell>
                <mxCell id="102" value="" style="edgeStyle=none;rounded=0;" parent="WIyWlLk6GJQsqaUBKTNV-1" source="100" target="101" edge="1">
                    <mxGeometry relative="1" as="geometry">
                        <Array as="points"/>
                    </mxGeometry>
                </mxCell>
                <mxCell id="103" value="touched(police:radio)" style="edgeLabel;align=center;verticalAlign=middle;resizable=0;points=[];" parent="102" vertex="1" connectable="0">
                    <mxGeometry x="0.0604" y="-1" relative="1" as="geometry">
                        <mxPoint x="5" y="-10" as="offset"/>
                    </mxGeometry>
                </mxCell>
                <mxCell id="100" value="" style="ellipse;whiteSpace=wrap;aspect=fixed;" parent="WIyWlLk6GJQsqaUBKTNV-1" vertex="1">
                    <mxGeometry x="2342.5" y="1410" width="45" height="45" as="geometry"/>
                </mxCell>
                <mxCell id="115" style="edgeStyle=none;rounded=0;html=0;" parent="WIyWlLk6GJQsqaUBKTNV-1" source="101" target="114" edge="1">
                    <mxGeometry relative="1" as="geometry"/>
                </mxCell>
                <mxCell id="116" value="call(sound, &quot;central_medidas_de_seguridad.mp3&quot;, &quot;&quot;) &amp;&amp;&#10;arrowsreset()" style="edgeLabel;align=center;verticalAlign=middle;resizable=0;points=[];" parent="115" vertex="1" connectable="0">
                    <mxGeometry x="-0.2841" y="4" relative="1" as="geometry">
                        <mxPoint x="4" y="26" as="offset"/>
                    </mxGeometry>
                </mxCell>
                <mxCell id="101" value="${st.blabla.medidas_seguridad} = false&#10;${st.voice} = null" style="rounded=1;whiteSpace=wrap;" parent="WIyWlLk6GJQsqaUBKTNV-1" vertex="1">
                    <mxGeometry x="2250" y="1640" width="230" height="60" as="geometry"/>
                </mxCell>
                <mxCell id="118" style="edgeStyle=none;rounded=0;html=0;entryX=0;entryY=0.5;entryDx=0;entryDy=0;exitX=1;exitY=0.5;exitDx=0;exitDy=0;" parent="WIyWlLk6GJQsqaUBKTNV-1" source="114" target="117" edge="1">
                    <mxGeometry relative="1" as="geometry">
                        <Array as="points">
                            <mxPoint x="2680" y="1880"/>
                        </Array>
                    </mxGeometry>
                </mxCell>
                <mxCell id="119" value="*voice(patrulla de apoyo)" style="edgeLabel;align=center;verticalAlign=middle;resizable=0;points=[];" parent="118" vertex="1" connectable="0">
                    <mxGeometry x="0.2314" y="1" relative="1" as="geometry">
                        <mxPoint x="-21" y="-17" as="offset"/>
                    </mxGeometry>
                </mxCell>
                <mxCell id="131" style="edgeStyle=none;rounded=0;html=0;entryX=0.5;entryY=1;entryDx=0;entryDy=0;" parent="WIyWlLk6GJQsqaUBKTNV-1" source="114" target="136" edge="1">
                    <mxGeometry relative="1" as="geometry">
                        <Array as="points">
                            <mxPoint x="2160" y="1880"/>
                            <mxPoint x="2120" y="1860"/>
                            <mxPoint x="2090" y="1820"/>
                        </Array>
                    </mxGeometry>
                </mxCell>
                <mxCell id="132" value="silence()" style="edgeLabel;align=center;verticalAlign=middle;resizable=0;points=[];" parent="131" vertex="1" connectable="0">
                    <mxGeometry x="-0.1356" y="2" relative="1" as="geometry">
                        <mxPoint x="-9" y="-4" as="offset"/>
                    </mxGeometry>
                </mxCell>
                <mxCell id="134" style="edgeStyle=none;rounded=0;html=0;" parent="WIyWlLk6GJQsqaUBKTNV-1" source="114" target="133" edge="1">
                    <mxGeometry relative="1" as="geometry">
                        <Array as="points">
                            <mxPoint x="2450" y="1960"/>
                        </Array>
                    </mxGeometry>
                </mxCell>
                <mxCell id="135" value="sleep(${scene.voz_segundos_buffer}*1000+1000)" style="edgeLabel;align=center;verticalAlign=middle;resizable=0;points=[];" parent="134" vertex="1" connectable="0">
                    <mxGeometry x="-0.3733" y="5" relative="1" as="geometry">
                        <mxPoint x="26" y="22" as="offset"/>
                    </mxGeometry>
                </mxCell>
                <mxCell id="147" style="edgeStyle=none;rounded=0;html=0;entryX=0;entryY=0.5;entryDx=0;entryDy=0;exitX=1;exitY=0.5;exitDx=0;exitDy=0;" parent="WIyWlLk6GJQsqaUBKTNV-1" source="114" target="146" edge="1">
                    <mxGeometry relative="1" as="geometry"/>
                </mxCell>
                <mxCell id="148" value="**voice(cinco ventitres)" style="edgeLabel;html=1;align=center;verticalAlign=middle;resizable=0;points=[];" parent="147" vertex="1" connectable="0">
                    <mxGeometry x="0.0453" y="3" relative="1" as="geometry">
                        <mxPoint as="offset"/>
                    </mxGeometry>
                </mxCell>
                <mxCell id="156" value="" style="edgeStyle=none;rounded=0;" parent="WIyWlLk6GJQsqaUBKTNV-1" source="114" target="100" edge="1">
                    <mxGeometry relative="1" as="geometry">
                        <Array as="points">
                            <mxPoint x="2510" y="1820"/>
                            <mxPoint x="2610" y="1610"/>
                            <mxPoint x="2510" y="1470"/>
                        </Array>
                    </mxGeometry>
                </mxCell>
                <mxCell id="157" value="*voice(nada mas)" style="edgeLabel;align=center;verticalAlign=middle;resizable=0;points=[];" parent="156" vertex="1" connectable="0">
                    <mxGeometry x="0.107" y="-2" relative="1" as="geometry">
                        <mxPoint as="offset"/>
                    </mxGeometry>
                </mxCell>
                <mxCell id="114" value="" style="rounded=1;whiteSpace=wrap;" parent="WIyWlLk6GJQsqaUBKTNV-1" vertex="1">
                    <mxGeometry x="2190" y="1850" width="350" height="60" as="geometry"/>
                </mxCell>
                <mxCell id="121" style="edgeStyle=none;rounded=0;html=0;" parent="WIyWlLk6GJQsqaUBKTNV-1" source="117" target="120" edge="1">
                    <mxGeometry relative="1" as="geometry">
                        <Array as="points">
                            <mxPoint x="3080" y="1780"/>
                        </Array>
                    </mxGeometry>
                </mxCell>
                <mxCell id="122" value="call(sound, &quot;central_envio_apoyo.mp3&quot;, &quot;&quot;)" style="edgeLabel;align=center;verticalAlign=middle;resizable=0;points=[];" parent="121" vertex="1" connectable="0">
                    <mxGeometry x="0.1672" y="2" relative="1" as="geometry">
                        <mxPoint x="-6" as="offset"/>
                    </mxGeometry>
                </mxCell>
                <mxCell id="117" value="" style="rounded=1;whiteSpace=wrap;" parent="WIyWlLk6GJQsqaUBKTNV-1" vertex="1">
                    <mxGeometry x="2780" y="1850" width="90" height="60" as="geometry"/>
                </mxCell>
                <mxCell id="124" style="edgeStyle=none;rounded=0;html=0;entryX=0;entryY=0.5;entryDx=0;entryDy=0;" parent="WIyWlLk6GJQsqaUBKTNV-1" source="120" target="123" edge="1">
                    <mxGeometry relative="1" as="geometry">
                        <Array as="points">
                            <mxPoint x="3440" y="1770"/>
                        </Array>
                    </mxGeometry>
                </mxCell>
                <mxCell id="125" value="call(sound, &quot;central_cuadrante2_dirijase.mp3&quot;, &quot;&quot;)" style="edgeLabel;align=center;verticalAlign=middle;resizable=0;points=[];" parent="124" vertex="1" connectable="0">
                    <mxGeometry x="0.0629" y="2" relative="1" as="geometry">
                        <mxPoint x="1" y="-16" as="offset"/>
                    </mxGeometry>
                </mxCell>
                <mxCell id="120" value="" style="rounded=1;whiteSpace=wrap;" parent="WIyWlLk6GJQsqaUBKTNV-1" vertex="1">
                    <mxGeometry x="3202" y="1860" width="90" height="60" as="geometry"/>
                </mxCell>
                <mxCell id="143" style="edgeStyle=none;rounded=0;html=0;" parent="WIyWlLk6GJQsqaUBKTNV-1" source="123" target="100" edge="1">
                    <mxGeometry relative="1" as="geometry">
                        <Array as="points">
                            <mxPoint x="3330" y="1440"/>
                        </Array>
                    </mxGeometry>
                </mxCell>
                <mxCell id="123" value="" style="rounded=1;whiteSpace=wrap;" parent="WIyWlLk6GJQsqaUBKTNV-1" vertex="1">
                    <mxGeometry x="3550" y="1860" width="90" height="60" as="geometry"/>
                </mxCell>
                <mxCell id="144" style="edgeStyle=none;rounded=0;html=0;" parent="WIyWlLk6GJQsqaUBKTNV-1" source="133" target="114" edge="1">
                    <mxGeometry relative="1" as="geometry">
                        <Array as="points">
                            <mxPoint x="2280" y="1960"/>
                        </Array>
                    </mxGeometry>
                </mxCell>
                <mxCell id="133" value="${st.blabla.medidas_seguridad} = true" style="rounded=1;whiteSpace=wrap;" parent="WIyWlLk6GJQsqaUBKTNV-1" vertex="1">
                    <mxGeometry x="2235" y="2010" width="260" height="60" as="geometry"/>
                </mxCell>
                <mxCell id="138" style="edgeStyle=none;rounded=0;html=0;entryX=0.5;entryY=1;entryDx=0;entryDy=0;" parent="WIyWlLk6GJQsqaUBKTNV-1" source="136" target="137" edge="1">
                    <mxGeometry relative="1" as="geometry"/>
                </mxCell>
                <mxCell id="139" value="${st.blabla.medidas_seguridad} == true" style="edgeLabel;align=center;verticalAlign=middle;resizable=0;points=[];" parent="138" vertex="1" connectable="0">
                    <mxGeometry x="-0.2344" relative="1" as="geometry">
                        <mxPoint x="-34" y="-25" as="offset"/>
                    </mxGeometry>
                </mxCell>
                <mxCell id="140" style="edgeStyle=none;rounded=0;html=0;entryX=0;entryY=1;entryDx=0;entryDy=0;" parent="WIyWlLk6GJQsqaUBKTNV-1" source="136" target="100" edge="1">
                    <mxGeometry relative="1" as="geometry"/>
                </mxCell>
                <mxCell id="141" value="${st.blabla.medidas_seguridad} !== true" style="edgeLabel;align=center;verticalAlign=middle;resizable=0;points=[];" parent="140" vertex="1" connectable="0">
                    <mxGeometry x="-0.074" y="-2" relative="1" as="geometry">
                        <mxPoint x="-14" y="13" as="offset"/>
                    </mxGeometry>
                </mxCell>
                <mxCell id="136" value="" style="rounded=1;whiteSpace=wrap;" parent="WIyWlLk6GJQsqaUBKTNV-1" vertex="1">
                    <mxGeometry x="2050" y="1740" width="80" height="60" as="geometry"/>
                </mxCell>
                <mxCell id="142" style="edgeStyle=none;rounded=0;html=0;" parent="WIyWlLk6GJQsqaUBKTNV-1" source="137" target="100" edge="1">
                    <mxGeometry relative="1" as="geometry"/>
                </mxCell>
                <mxCell id="137" value="call(sound, &quot;central_cinco_cero_cuatro.mp3&quot;, &quot;&quot;)" style="rounded=1;whiteSpace=wrap;" parent="WIyWlLk6GJQsqaUBKTNV-1" vertex="1">
                    <mxGeometry x="1840" y="1520" width="310" height="60" as="geometry"/>
                </mxCell>
                <mxCell id="145" value="hi" style="ellipse;whiteSpace=wrap;aspect=fixed;" parent="WIyWlLk6GJQsqaUBKTNV-1" vertex="1">
                    <mxGeometry x="3900" y="2560" width="45" height="45" as="geometry"/>
                </mxCell>
                <mxCell id="149" style="edgeStyle=none;rounded=0;html=0;entryX=1;entryY=0.5;entryDx=0;entryDy=0;" parent="WIyWlLk6GJQsqaUBKTNV-1" source="146" target="114" edge="1">
                    <mxGeometry relative="1" as="geometry"/>
                </mxCell>
                <mxCell id="146" value="increase(points.codigos)&#10;${st.blabla.medidas_seguridad} = true" style="rounded=1;whiteSpace=wrap;" parent="WIyWlLk6GJQsqaUBKTNV-1" vertex="1">
                    <mxGeometry x="2680" y="1670" width="225" height="40" as="geometry"/>
                </mxCell>
                <mxCell id="159" style="edgeStyle=none;rounded=0;html=0;entryX=0.5;entryY=0;entryDx=0;entryDy=0;" parent="WIyWlLk6GJQsqaUBKTNV-1" source="151" target="158" edge="1">
                    <mxGeometry relative="1" as="geometry">
                        <Array as="points">
                            <mxPoint x="1190" y="1480"/>
                            <mxPoint x="760" y="1525"/>
                            <mxPoint x="400" y="1530"/>
                        </Array>
                    </mxGeometry>
                </mxCell>
                <mxCell id="160" value="touched(police:mesero1)" style="edgeLabel;align=center;verticalAlign=middle;resizable=0;points=[];" parent="159" vertex="1" connectable="0">
                    <mxGeometry x="0.0925" y="4" relative="1" as="geometry">
                        <mxPoint x="-90" y="-16" as="offset"/>
                    </mxGeometry>
                </mxCell>
                <mxCell id="162" style="edgeStyle=none;rounded=0;html=0;entryX=1;entryY=0.5;entryDx=0;entryDy=0;" parent="WIyWlLk6GJQsqaUBKTNV-1" source="151" target="161" edge="1">
                    <mxGeometry relative="1" as="geometry">
                        <Array as="points">
                            <mxPoint x="1220" y="1570"/>
                        </Array>
                    </mxGeometry>
                </mxCell>
                <mxCell id="163" value="touched(police:mesero2)" style="edgeLabel;html=1;align=center;verticalAlign=middle;resizable=0;points=[];" parent="162" vertex="1" connectable="0">
                    <mxGeometry x="0.056" y="4" relative="1" as="geometry">
                        <mxPoint x="-42" as="offset"/>
                    </mxGeometry>
                </mxCell>
                <mxCell id="165" style="edgeStyle=none;rounded=0;html=0;" parent="WIyWlLk6GJQsqaUBKTNV-1" source="151" target="164" edge="1">
                    <mxGeometry relative="1" as="geometry">
                        <Array as="points">
                            <mxPoint x="1423" y="1620"/>
                            <mxPoint x="1110" y="1620"/>
                        </Array>
                    </mxGeometry>
                </mxCell>
                <mxCell id="168" value="touched(police:mesero3)" style="edgeLabel;align=center;verticalAlign=middle;resizable=0;points=[];" parent="165" vertex="1" connectable="0">
                    <mxGeometry x="0.045" relative="1" as="geometry">
                        <mxPoint x="16" y="-17" as="offset"/>
                    </mxGeometry>
                </mxCell>
                <mxCell id="167" style="edgeStyle=none;rounded=0;html=0;entryX=0.5;entryY=0;entryDx=0;entryDy=0;" parent="WIyWlLk6GJQsqaUBKTNV-1" source="151" target="166" edge="1">
                    <mxGeometry relative="1" as="geometry">
                        <Array as="points"/>
                    </mxGeometry>
                </mxCell>
                <mxCell id="169" value="touched(police:mesero4)" style="edgeLabel;align=center;verticalAlign=middle;resizable=0;points=[];" parent="167" vertex="1" connectable="0">
                    <mxGeometry x="-0.2982" y="4" relative="1" as="geometry">
                        <mxPoint as="offset"/>
                    </mxGeometry>
                </mxCell>
                <mxCell id="151" value="choose(1)" style="rounded=1;whiteSpace=wrap;" parent="WIyWlLk6GJQsqaUBKTNV-1" vertex="1">
                    <mxGeometry x="1558.5" y="1470" width="70" height="50" as="geometry"/>
                </mxCell>
                <mxCell id="153" value="" style="rounded=1;whiteSpace=wrap;" parent="WIyWlLk6GJQsqaUBKTNV-1" vertex="1">
                    <mxGeometry x="1559" y="230" width="70" height="50" as="geometry"/>
                </mxCell>
                <mxCell id="179" style="edgeStyle=none;rounded=0;html=0;entryX=0.5;entryY=0;entryDx=0;entryDy=0;" parent="WIyWlLk6GJQsqaUBKTNV-1" source="158" target="178" edge="1">
                    <mxGeometry relative="1" as="geometry"/>
                </mxCell>
                <mxCell id="180" value="call(sound, &quot;mesero1_greet${var.mesero1.greet1}.mp3&quot;, &quot;&quot;)" style="edgeLabel;align=center;verticalAlign=middle;resizable=0;points=[];" parent="179" vertex="1" connectable="0">
                    <mxGeometry x="-0.3334" y="2" relative="1" as="geometry">
                        <mxPoint x="-20" y="20" as="offset"/>
                    </mxGeometry>
                </mxCell>
                <mxCell id="158" value="${var.mesero1.greet1} = ${o|rand:1:2}&#10;${var.mesero1.greet2} = ${o|rand:1:2:3:4:5}" style="rounded=1;whiteSpace=wrap;" parent="WIyWlLk6GJQsqaUBKTNV-1" vertex="1">
                    <mxGeometry x="230" y="1570" width="290" height="50" as="geometry"/>
                </mxCell>
                <mxCell id="193" style="edgeStyle=none;rounded=0;html=0;" parent="WIyWlLk6GJQsqaUBKTNV-1" source="161" target="191" edge="1">
                    <mxGeometry relative="1" as="geometry"/>
                </mxCell>
                <mxCell id="161" value="${var.mesero2.greet1} = ${o|rand:1:2}&#10;${var.mesero2.greet2} = ${o|rand:1:2}" style="rounded=1;whiteSpace=wrap;" parent="WIyWlLk6GJQsqaUBKTNV-1" vertex="1">
                    <mxGeometry x="630" y="1570" width="260" height="50" as="geometry"/>
                </mxCell>
                <mxCell id="201" style="edgeStyle=none;rounded=0;html=0;" parent="WIyWlLk6GJQsqaUBKTNV-1" source="164" target="200" edge="1">
                    <mxGeometry relative="1" as="geometry"/>
                </mxCell>
                <mxCell id="164" value="${var.mesero3.greet1} = ${o|rand:1:2:3}&#10;${var.mesero3.greet2} = ${o|rand:1:2:3:4:5:6:7:8:9:10}" style="rounded=1;whiteSpace=wrap;arcSize=17;" parent="WIyWlLk6GJQsqaUBKTNV-1" vertex="1">
                    <mxGeometry x="940" y="1640" width="340" height="50" as="geometry"/>
                </mxCell>
                <mxCell id="208" style="edgeStyle=none;rounded=0;html=0;entryX=0.5;entryY=0;entryDx=0;entryDy=0;" parent="WIyWlLk6GJQsqaUBKTNV-1" source="166" target="206" edge="1">
                    <mxGeometry relative="1" as="geometry"/>
                </mxCell>
                <mxCell id="166" value="${var.mesero4.greet1} = ${o|rand:1:2}&#10;${var.mesero4.greet2} = ${o|rand:1:2}" style="rounded=1;whiteSpace=wrap;" parent="WIyWlLk6GJQsqaUBKTNV-1" vertex="1">
                    <mxGeometry x="1450" y="1665" width="240" height="50" as="geometry"/>
                </mxCell>
                <mxCell id="170" value="hi" style="ellipse;whiteSpace=wrap;aspect=fixed;" parent="WIyWlLk6GJQsqaUBKTNV-1" vertex="1">
                    <mxGeometry x="80" y="70" width="45" height="45" as="geometry"/>
                </mxCell>
                <mxCell id="176" style="edgeStyle=none;rounded=0;html=0;entryX=1;entryY=0.5;entryDx=0;entryDy=0;" parent="WIyWlLk6GJQsqaUBKTNV-1" source="171" target="151" edge="1">
                    <mxGeometry relative="1" as="geometry">
                        <Array as="points">
                            <mxPoint x="1480" y="2235"/>
                            <mxPoint x="1810" y="2235"/>
                            <mxPoint x="1810" y="1500"/>
                        </Array>
                    </mxGeometry>
                </mxCell>
                <mxCell id="177" value="sleep(5000)" style="edgeLabel;align=center;verticalAlign=middle;resizable=0;points=[];" parent="176" vertex="1" connectable="0">
                    <mxGeometry x="-0.0794" y="-3" relative="1" as="geometry">
                        <mxPoint y="16" as="offset"/>
                    </mxGeometry>
                </mxCell>
                <mxCell id="171" value="" style="rounded=1;whiteSpace=wrap;" parent="WIyWlLk6GJQsqaUBKTNV-1" vertex="1">
                    <mxGeometry x="1180" y="2210" width="70" height="50" as="geometry"/>
                </mxCell>
                <mxCell id="182" style="edgeStyle=none;rounded=0;html=0;entryX=0.5;entryY=0;entryDx=0;entryDy=0;" parent="WIyWlLk6GJQsqaUBKTNV-1" source="178" target="181" edge="1">
                    <mxGeometry relative="1" as="geometry">
                        <Array as="points"/>
                    </mxGeometry>
                </mxCell>
                <mxCell id="188" value="voice(donde)" style="edgeLabel;align=center;verticalAlign=middle;resizable=0;points=[];" parent="182" vertex="1" connectable="0">
                    <mxGeometry x="0.2757" y="2" relative="1" as="geometry">
                        <mxPoint x="-1" as="offset"/>
                    </mxGeometry>
                </mxCell>
                <mxCell id="184" style="edgeStyle=none;rounded=0;html=0;entryX=0;entryY=0.5;entryDx=0;entryDy=0;" parent="WIyWlLk6GJQsqaUBKTNV-1" source="178" target="171" edge="1">
                    <mxGeometry relative="1" as="geometry">
                        <Array as="points">
                            <mxPoint x="380" y="2020"/>
                        </Array>
                    </mxGeometry>
                </mxCell>
                <mxCell id="185" value="isnottouched(police:mesero1)" style="edgeLabel;align=center;verticalAlign=middle;resizable=0;points=[];" parent="184" vertex="1" connectable="0">
                    <mxGeometry x="-0.4857" y="1" relative="1" as="geometry">
                        <mxPoint x="-13" y="-18" as="offset"/>
                    </mxGeometry>
                </mxCell>
                <mxCell id="178" value="" style="rounded=1;whiteSpace=wrap;" parent="WIyWlLk6GJQsqaUBKTNV-1" vertex="1">
                    <mxGeometry x="300" y="1740" width="130" height="50" as="geometry"/>
                </mxCell>
                <mxCell id="186" style="edgeStyle=none;rounded=0;html=0;entryX=0;entryY=0.5;entryDx=0;entryDy=0;" parent="WIyWlLk6GJQsqaUBKTNV-1" source="181" target="171" edge="1">
                    <mxGeometry relative="1" as="geometry">
                        <Array as="points">
                            <mxPoint x="150" y="1925"/>
                            <mxPoint x="150" y="2080"/>
                            <mxPoint x="1030" y="2240"/>
                        </Array>
                    </mxGeometry>
                </mxCell>
                <mxCell id="187" value="call(sound, &quot;mesero1_greet_ind${var.mesero1.greet2}.mp3&quot;, &quot;&quot;)" style="edgeLabel;align=center;verticalAlign=middle;resizable=0;points=[];" parent="186" vertex="1" connectable="0">
                    <mxGeometry x="-0.7982" y="-4" relative="1" as="geometry">
                        <mxPoint x="134" y="35" as="offset"/>
                    </mxGeometry>
                </mxCell>
                <mxCell id="181" value="" style="rounded=1;whiteSpace=wrap;" parent="WIyWlLk6GJQsqaUBKTNV-1" vertex="1">
                    <mxGeometry x="190" y="1900" width="100" height="50" as="geometry"/>
                </mxCell>
                <mxCell id="190" style="edgeStyle=none;rounded=0;html=0;" parent="WIyWlLk6GJQsqaUBKTNV-1" source="189" target="89" edge="1">
                    <mxGeometry relative="1" as="geometry"/>
                </mxCell>
                <mxCell id="189" value="inicio" style="ellipse;whiteSpace=wrap;aspect=fixed;" parent="WIyWlLk6GJQsqaUBKTNV-1" vertex="1">
                    <mxGeometry x="1240" y="1317.5" width="45" height="45" as="geometry"/>
                </mxCell>
                <mxCell id="194" style="edgeStyle=none;rounded=0;html=0;entryX=0.5;entryY=0;entryDx=0;entryDy=0;" parent="WIyWlLk6GJQsqaUBKTNV-1" source="191" target="192" edge="1">
                    <mxGeometry relative="1" as="geometry"/>
                </mxCell>
                <mxCell id="197" value="voice(donde)" style="edgeLabel;align=center;verticalAlign=middle;resizable=0;points=[];" parent="194" vertex="1" connectable="0">
                    <mxGeometry x="0.1592" y="1" relative="1" as="geometry">
                        <mxPoint as="offset"/>
                    </mxGeometry>
                </mxCell>
                <mxCell id="195" style="edgeStyle=none;rounded=0;html=0;entryX=0;entryY=0.5;entryDx=0;entryDy=0;" parent="WIyWlLk6GJQsqaUBKTNV-1" source="191" target="171" edge="1">
                    <mxGeometry relative="1" as="geometry"/>
                </mxCell>
                <mxCell id="196" value="isnottouched(police:mesero2)" style="edgeLabel;align=center;verticalAlign=middle;resizable=0;points=[];" parent="195" vertex="1" connectable="0">
                    <mxGeometry x="-0.1215" y="1" relative="1" as="geometry">
                        <mxPoint as="offset"/>
                    </mxGeometry>
                </mxCell>
                <mxCell id="191" value="" style="rounded=1;whiteSpace=wrap;" parent="WIyWlLk6GJQsqaUBKTNV-1" vertex="1">
                    <mxGeometry x="610" y="1770" width="130" height="50" as="geometry"/>
                </mxCell>
                <mxCell id="198" style="edgeStyle=none;rounded=0;html=0;entryX=0;entryY=0.5;entryDx=0;entryDy=0;" parent="WIyWlLk6GJQsqaUBKTNV-1" source="192" target="171" edge="1">
                    <mxGeometry relative="1" as="geometry"/>
                </mxCell>
                <mxCell id="192" value="" style="rounded=1;whiteSpace=wrap;" parent="WIyWlLk6GJQsqaUBKTNV-1" vertex="1">
                    <mxGeometry x="560" y="1940" width="100" height="50" as="geometry"/>
                </mxCell>
                <mxCell id="203" style="edgeStyle=none;rounded=0;html=0;entryX=0.5;entryY=0;entryDx=0;entryDy=0;" parent="WIyWlLk6GJQsqaUBKTNV-1" source="200" target="202" edge="1">
                    <mxGeometry relative="1" as="geometry"/>
                </mxCell>
                <mxCell id="214" value="voice(donde)" style="edgeLabel;align=center;verticalAlign=middle;resizable=0;points=[];" parent="203" vertex="1" connectable="0">
                    <mxGeometry x="-0.3813" y="-3" relative="1" as="geometry">
                        <mxPoint as="offset"/>
                    </mxGeometry>
                </mxCell>
                <mxCell id="205" style="edgeStyle=none;rounded=0;html=0;entryX=0.5;entryY=0;entryDx=0;entryDy=0;" parent="WIyWlLk6GJQsqaUBKTNV-1" source="200" target="171" edge="1">
                    <mxGeometry relative="1" as="geometry">
                        <Array as="points">
                            <mxPoint x="1170" y="1795"/>
                            <mxPoint x="1220" y="1880"/>
                            <mxPoint x="1210" y="2170"/>
                        </Array>
                    </mxGeometry>
                </mxCell>
                <mxCell id="212" value="isnottouched(police:mesero3)" style="edgeLabel;align=center;verticalAlign=middle;resizable=0;points=[];" parent="205" vertex="1" connectable="0">
                    <mxGeometry x="-0.3855" y="-3" relative="1" as="geometry">
                        <mxPoint x="33" y="25" as="offset"/>
                    </mxGeometry>
                </mxCell>
                <mxCell id="200" value="" style="rounded=1;whiteSpace=wrap;" parent="WIyWlLk6GJQsqaUBKTNV-1" vertex="1">
                    <mxGeometry x="1020" y="1770" width="130" height="50" as="geometry"/>
                </mxCell>
                <mxCell id="204" style="edgeStyle=none;rounded=0;html=0;entryX=0.5;entryY=0;entryDx=0;entryDy=0;" parent="WIyWlLk6GJQsqaUBKTNV-1" source="202" target="171" edge="1">
                    <mxGeometry relative="1" as="geometry"/>
                </mxCell>
                <mxCell id="202" value="" style="rounded=1;whiteSpace=wrap;" parent="WIyWlLk6GJQsqaUBKTNV-1" vertex="1">
                    <mxGeometry x="940" y="1900" width="100" height="50" as="geometry"/>
                </mxCell>
                <mxCell id="209" style="edgeStyle=none;rounded=0;html=0;entryX=0.5;entryY=0;entryDx=0;entryDy=0;" parent="WIyWlLk6GJQsqaUBKTNV-1" source="206" target="207" edge="1">
                    <mxGeometry relative="1" as="geometry">
                        <Array as="points">
                            <mxPoint x="1460" y="1910"/>
                        </Array>
                    </mxGeometry>
                </mxCell>
                <mxCell id="215" value="voice(donde)" style="edgeLabel;align=center;verticalAlign=middle;resizable=0;points=[];" parent="209" vertex="1" connectable="0">
                    <mxGeometry x="-0.1777" y="-2" relative="1" as="geometry">
                        <mxPoint as="offset"/>
                    </mxGeometry>
                </mxCell>
                <mxCell id="211" style="edgeStyle=none;rounded=0;html=0;entryX=1;entryY=0.5;entryDx=0;entryDy=0;" parent="WIyWlLk6GJQsqaUBKTNV-1" source="206" target="171" edge="1">
                    <mxGeometry relative="1" as="geometry">
                        <Array as="points">
                            <mxPoint x="1660" y="1815"/>
                            <mxPoint x="1660" y="2170"/>
                            <mxPoint x="1290" y="2190"/>
                        </Array>
                    </mxGeometry>
                </mxCell>
                <mxCell id="213" value="isnottouched(police:mesero4)" style="edgeLabel;align=center;verticalAlign=middle;resizable=0;points=[];" parent="211" vertex="1" connectable="0">
                    <mxGeometry x="-0.2423" y="4" relative="1" as="geometry">
                        <mxPoint as="offset"/>
                    </mxGeometry>
                </mxCell>
                <mxCell id="206" value="" style="rounded=1;whiteSpace=wrap;" parent="WIyWlLk6GJQsqaUBKTNV-1" vertex="1">
                    <mxGeometry x="1480" y="1790" width="130" height="50" as="geometry"/>
                </mxCell>
                <mxCell id="210" style="edgeStyle=none;rounded=0;html=0;entryX=0.5;entryY=0;entryDx=0;entryDy=0;" parent="WIyWlLk6GJQsqaUBKTNV-1" source="207" target="171" edge="1">
                    <mxGeometry relative="1" as="geometry"/>
                </mxCell>
                <mxCell id="207" value="" style="rounded=1;whiteSpace=wrap;" parent="WIyWlLk6GJQsqaUBKTNV-1" vertex="1">
                    <mxGeometry x="1339" y="1980" width="100" height="50" as="geometry"/>
                </mxCell>
            </root>
        </mxGraphModel>
    </diagram>
</mxfile>